<svg width="347" height="104" viewBox="0 0 347 104" fill="none" xmlns="http://www.w3.org/2000/svg">
<path fill-rule="evenodd" clip-rule="evenodd" d="M64.0157 0V18.275H51.1483C36.4331 18.275 23.9353 27.9911 19.7629 41.3545C11.4181 46.1396 4.5516 53.2006 -0.00012207 61.7011V51.1485C-0.00012207 22.9434 22.9433 0 51.1483 0H64.0157ZM238.245 79.9567V35.3732H257.833V21.7765H238.245V1.75084H221.439V21.7862H211.937V35.383H221.439V79.9665C221.439 87.8542 223.433 93.5535 227.43 97.0646C231.418 100.576 237.166 102.326 244.674 102.326H257.833V88.4377H247.602C244.188 88.4377 241.776 87.7764 240.366 86.4634C238.955 85.1504 238.245 82.9815 238.245 79.9567ZM69.2775 83.8177C72.7886 90.1007 77.6126 94.9733 83.7496 98.4357V98.426C89.8867 101.879 96.6559 103.61 104.359 103.61C112.062 103.61 119.103 101.888 125.483 98.426C131.864 94.9733 136.902 90.0715 140.607 83.7399C144.313 77.4084 146.161 70.1431 146.161 61.9636C146.161 53.7842 144.352 46.5189 140.753 40.1874C137.145 33.8558 132.223 28.9832 125.989 25.5694C119.755 22.1556 112.781 20.4535 105.088 20.4535C97.3951 20.4535 90.4216 22.1556 84.1873 25.5694C77.953 28.9832 73.0317 33.8558 69.4234 40.1874C65.8151 46.5189 64.0158 53.6772 64.0158 61.9636C64.0158 70.2501 65.7665 77.5348 69.2775 83.8177ZM125.552 76.8734C123.217 80.968 120.173 84.0414 116.419 86.0839V86.0741C112.665 88.1263 108.648 89.1475 104.359 89.1475C97.6285 89.1475 92.0555 86.7841 87.6205 82.0573C83.1855 77.3403 80.968 70.6391 80.968 61.9636C80.968 56.1184 82.0476 51.1776 84.1873 47.1317C86.327 43.0954 89.2253 40.0415 92.8823 37.9991C96.5392 35.9469 100.517 34.9257 104.796 34.9257C109.076 34.9257 113.073 35.9566 116.779 37.9991C120.484 40.0415 123.451 43.0857 125.697 47.1317C127.944 51.1679 129.063 56.1184 129.063 61.9636C129.063 67.8089 127.886 72.7788 125.552 76.8734ZM346.407 68.2579H284.871C285.357 74.6868 287.74 79.8512 292.029 83.7513C296.318 87.6514 301.58 89.5966 307.814 89.5966C316.782 89.5966 323.113 85.8424 326.819 78.3437H344.802C342.361 85.7451 337.955 91.8141 331.575 96.5408C325.195 101.268 317.278 103.631 307.824 103.631C300.121 103.631 293.235 101.9 287.137 98.4471C281.049 94.9847 276.273 90.112 272.811 83.8291C269.348 77.5462 267.627 70.2615 267.627 61.975C267.627 53.6886 269.31 46.4039 272.665 40.1209C276.03 33.838 280.757 28.9848 286.845 25.5807C292.934 22.167 299.927 20.4649 307.824 20.4649C315.721 20.4649 322.199 22.1183 328.141 25.4348C334.084 28.7514 338.714 33.4004 342.03 39.3915C345.337 45.3827 347 52.2783 347 60.0785C347 63.1032 346.805 65.8265 346.416 68.2677L346.407 68.2579ZM329.6 54.807C329.503 48.67 327.305 43.7487 323.026 40.0431C318.737 36.3376 313.426 34.4897 307.095 34.4897C301.347 34.4897 296.425 36.3181 292.331 39.9751C288.236 43.632 285.805 48.5727 285.027 54.807H329.6ZM51.1484 58.9092V40.644C49.1059 40.644 47.1024 40.7607 45.128 40.9941C34.9742 42.1904 25.7151 46.3725 18.2651 52.6457C10.854 58.8703 5.24213 67.1665 2.29519 76.6298C0.807127 81.4247 -0.00012207 86.5113 -0.00012207 91.7924V102.306H18.2651V91.7924C18.2651 73.6634 33.029 58.9092 51.1484 58.9092ZM203.456 21.7752V35.3137C191.217 35.3137 181.046 44.39 179.336 56.1707V102.316H162.675V21.7755H179.336V30.463C184.807 25.9314 191.578 22.9094 198.992 22.0378C200.45 21.8628 201.939 21.7752 203.456 21.7752Z" fill="#A31551"/>
</svg>
